<?xml version="1.0" encoding="UTF-8"?>
<svg display="block" version="1.1" viewBox="0 0 512 512" xmlns="http://www.w3.org/2000/svg">
    <circle cx="256" cy="256" r="256" fill="#c40809" stroke-width="1" />
    <path d="m139.3 101.3 68.3 117.58c41.681-117.58 0.45928-1.1477 41.681-117.58 35.801-0.0596 0 0 35.779 0 49.293 165.8 0.73788 0 49.293 165.8l44.31-29.047 17.169 48.928-46.167 32.018 6.5506 20.948 48.315-30.826 8.1778 23.355-51.003 27.622c5.3112 18.196 9.9833 34.27 15.706 52.403l-53.739 0.0837-7.5936-29.382-53.604 29.078-4.9747-8.4018 54.624-34.697-5.8076-22.979-60.526 37.769c-30.597-54.092-13.978-24.454-30.597-54.092l-22.781 82.704h-52.07l45.562-130.59-84.614-156.7z" fill="#fff" />
    <path d="m258.58 169.91 34.036 123.78-30.769 20.533-29.302-50.731 26.035-93.586z" fill="#c40809" />
</svg>