<?xml version="1.0" standalone="no"?>
<!DOCTYPE svg PUBLIC "-//W3C//DTD SVG 20010904//EN"
 "http://www.w3.org/TR/2001/REC-SVG-20010904/DTD/svg10.dtd">
<svg version="1.0" xmlns="http://www.w3.org/2000/svg"
 width="700.000000pt" height="700.000000pt" viewBox="0 0 700.000000 700.000000"
 preserveAspectRatio="xMidYMid meet">
<metadata>
Created by potrace 1.14, written by Peter Selinger 2001-2017
</metadata>
<g transform="translate(0.000000,700.000000) scale(0.100000,-0.100000)"
fill="#000000" stroke="none">
<path d="M3280 6994 c-19 -2 -84 -9 -145 -14 -639 -62 -1264 -315 -1795 -726
-149 -115 -481 -446 -595 -594 -410 -532 -653 -1132 -727 -1795 -17 -155 -17
-575 0 -730 75 -673 332 -1300 748 -1820 114 -143 339 -372 484 -494 537 -451
1163 -717 1885 -803 142 -17 586 -17 730 0 682 79 1268 318 1802 734 138 107
389 351 512 498 451 538 717 1162 803 1885 16 139 16 595 0 730 -77 629 -275
1158 -620 1649 -234 333 -577 668 -917 896 -460 308 -968 495 -1535 566 -117
15 -552 27 -630 18z m620 -1396 c13 -31 313 -1033 506 -1688 84 -289 157 -533
161 -542 7 -15 53 12 306 178 165 108 301 193 304 191 14 -14 233 -661 226
-667 -4 -4 -147 -103 -316 -220 -201 -139 -306 -217 -303 -226 3 -7 21 -66 42
-131 20 -65 40 -122 44 -127 5 -5 147 79 323 192 173 111 321 203 327 204 8 2
33 -54 66 -147 29 -82 54 -153 54 -156 0 -4 -152 -88 -337 -189 -186 -100
-342 -186 -347 -191 -5 -5 0 -40 14 -86 48 -164 179 -599 185 -615 7 -17 -14
-18 -362 -18 l-368 0 -49 193 c-27 105 -52 195 -55 198 -3 4 -166 -80 -361
-187 -195 -106 -360 -193 -365 -194 -6 0 -15 8 -21 17 -5 10 -20 34 -32 54
l-22 37 373 237 374 237 -37 150 c-21 82 -40 152 -43 155 -3 3 -189 -110 -414
-250 -310 -194 -410 -252 -418 -243 -5 7 -100 171 -209 365 -125 221 -202 347
-207 339 -4 -7 -66 -229 -139 -493 -72 -264 -140 -510 -151 -548 l-20 -67
-355 0 c-323 0 -356 2 -350 16 3 9 144 411 312 893 l306 876 -19 35 c-11 19
-271 500 -578 1068 -465 862 -555 1036 -544 1046 17 16 494 316 501 316 3 0
214 -360 469 -799 255 -439 467 -794 471 -787 3 6 130 362 282 791 152 429
278 786 281 793 3 9 62 12 245 12 240 0 240 0 250 -22z"/>
<path d="M3356 4034 l-177 -636 198 -344 c109 -189 201 -344 206 -344 7 0 391
252 410 269 6 6 -447 1678 -457 1688 -1 2 -82 -283 -180 -633z"/>
</g>
</svg>
